<svg fill="none" height="74" viewBox="0 0 248 74" width="248" xmlns="http://www.w3.org/2000/svg" xmlns:xlink="http://www.w3.org/1999/xlink"><filter id="a" color-interpolation-filters="sRGB" filterUnits="userSpaceOnUse" height="52.1123" width="164.798" x="82.4873" y="8.39453"><feFlood flood-opacity="0" result="BackgroundImageFix"/><feColorMatrix in="SourceAlpha" result="hardAlpha" type="matrix" values="0 0 0 0 0 0 0 0 0 0 0 0 0 0 0 0 0 0 127 0"/><feOffset dx="2" dy="2"/><feColorMatrix type="matrix" values="0 0 0 0 1 0 0 0 0 1 0 0 0 0 1 0 0 0 1 0"/><feBlend in2="BackgroundImageFix" mode="normal" result="effect1_dropShadow_513_1112"/><feBlend in="SourceGraphic" in2="effect1_dropShadow_513_1112" mode="normal" result="shape"/></filter><clipPath id="b"><path d="m0 2h58v58h-58z"/></clipPath><g filter="url(#a)"><path d="m82.4873 56.6807c.1432-.1075.376-.2865.6982-.5371.2865-.2507.6446-.7162 1.0743-1.3965.3938-.6804.8414-1.6651 1.3427-2.9541.5013-1.2891 1.0205-3.0437 1.5577-5.2637.2864-1.1816.6624-2.6855 1.1279-4.5117s.9668-3.7777 1.5039-5.8545c.5729-2.0768 1.1458-4.2074 1.7187-6.3916.573-2.2201 1.128-4.3148 1.6651-6.2842.5371-2.0052 1.0205-3.8135 1.4502-5.4248s.7698-2.8646 1.0205-3.7598c-.6804.4297-1.3428.9131-1.9873 1.4502-.5729.4655-1.1817 1.0026-1.8262 1.6114-.6445.5729-1.2712 1.1816-1.8799 1.8261-.4655-.3939-.8235-.8235-1.0742-1.289-.1432-.2149-.2685-.4476-.376-.6983-.2148-.5371-.3222-1.0921-.3222-1.665s.4476-1.1638 1.3427-1.7725c.4655-.3222 1.1638-.7877 2.0948-1.3965.9668-.6087 2.1484-1.1995 3.5449-1.7724 1.3965-.60874 3.0257-1.12795 4.8879-1.55764 1.862-.42968 3.921-.64453 6.177-.64453 2.255 0 4.064.44759 5.424 1.34277 1.397.8952 2.453 1.9873 3.169 3.2764.752 1.289 1.236 2.6497 1.45 4.082.215 1.4323.269 2.6855.162 3.7598-.215 2.0052-.86 4.0999-1.934 6.2841-1.074 2.1843-2.56 4.2074-4.458 6.0694-1.898 1.8262-4.207 3.3838-6.929 4.6728-2.721 1.2891-5.8363 2.0231-9.3454 2.2022-.2865 1.3607-.5729 2.7571-.8594 4.1894-.2864 1.4323-.5908 2.8467-.9131 4.2432-.3222 1.3607-.6624 2.6318-1.0205 3.8135-.3222 1.2174-.6624 2.2558-1.0205 3.1152-.358.931-.8235 1.6651-1.3965 2.2022-.5729.5729-1.486.8593-2.7392.8593-.6445 0-1.2354-.1611-1.7725-.4834-.5729-.3222-1.0921-.7698-1.5576-1.3427zm12.7295-24.4922c-.1074.5729-.2507 1.3248-.4297 2.2558-.1432.8952-.3223 1.9157-.5371 3.0616.9668-.1433 2.041-.3939 3.2227-.752 1.1816-.3939 2.3632-.9131 3.5453-1.5576 1.181-.6445 2.327-1.4144 3.437-2.3096 1.146-.931 2.184-1.9873 3.115-3.1689.931-1.2175 1.701-2.5782 2.31-4.0821.644-1.5397 1.056-3.2405 1.235-5.1025.179-1.7904.072-3.2764-.322-4.458-.358-1.2175-.895-2.1842-1.611-2.9004-.717-.7519-1.54-1.2712-2.471-1.5576-.931-.3223-1.862-.4834-2.793-.4834-.895 0-1.772.1253-2.632.376-.859.2506-1.7186.5729-2.578.9668.1074.0358.2328.1253.376.2685.2148.2149.376.5192.4834.9131-.8594 3.4733-1.5755 6.3737-2.1485 8.7012-.5371 2.3274-.9668 4.2252-1.289 5.6933-.3939 1.7188-.6983 3.0974-.9131 4.1358zm47.9642 6.123c-.502.7162-1.146 1.6114-1.934 2.6856-.788 1.0384-1.611 2.0947-2.471 3.1689-.823 1.0384-1.647 2.0052-2.47 2.9004-.788.8594-1.451 1.4681-1.988 1.8262-.358.2148-.769.3939-1.235.5371-.465.1432-.949.2327-1.45.2685-.466.0358-.913 0-1.343-.1074-.43-.0716-.806-.2148-1.128-.4297-.322-.2506-.591-.6087-.806-1.0742-.179-.3939-.358-.9131-.537-1.5576-.143-.6445-.197-1.4502-.161-2.417-.859 1.4323-1.808 2.5423-2.846 3.3301-1.039.7519-2.024 1.3069-2.955 1.665-1.074.3939-2.148.6266-3.222.6983-.502 0-1.039-.1791-1.612-.5371-.572-.3223-1.056-.8415-1.45-1.5577-.394-.7519-.644-1.7008-.752-2.8466-.107-1.1817.036-2.5782.43-4.1895.501-2.1842 1.289-4.1715 2.363-5.9619 1.11-1.7904 2.31-3.3122 3.599-4.5654 1.289-1.2891 2.56-2.2559 3.813-2.9004 1.254-.6446 2.292-.931 3.116-.8594.966.179 1.754.4655 2.363.8594.501.358.823.8952.967 1.6113.179.6803-.108 1.5934-.86 2.7393.502-.1075.913-.1791 1.236-.2149.358-.0358.626-.0537.805-.0537.215 0 .358.0179.43.0537.036.0716.054.2328.054.4834 0 .2149-.054.6266-.161 1.2354-.108.6087-.269 1.4323-.484 2.4707s-.501 2.3812-.859 4.0283c-.072.3223-.143.6266-.215.9131-.036.2506-.09.5192-.161.8056-.036.2507-.09.555-.161.9131-.072.3581-.161.8057-.269 1.3428-.036.3223-.054.6803-.054 1.0742.036.3581.108.6983.215 1.0205.108.3223.269.5908.484.8057.25.179.59.2685 1.02.2685.358 0 .824-.2148 1.397-.6445.573-.4655 1.181-1.0384 1.826-1.7187.644-.7162 1.307-1.486 1.987-2.3096.716-.8594 1.379-1.683 1.987-2.4707.609-.7878 1.146-1.486 1.612-2.0947.501-.6088.859-1.0564 1.074-1.3428.286-.3223.573-.5013.859-.5371.287-.0716.502 0 .645.2148.143.2149.161.5371.054.9668-.072.4297-.323.931-.752 1.5039zm-15.738 2.3633c.179-.7161.394-1.5576.645-2.5244s.465-1.8978.644-2.793.305-1.6292.376-2.2021c.108-.6088.09-.8952-.053-.8594-.179.0358-.376.0895-.591.1611-.179.0716-.412.1254-.698.1612-.287.0358-.573.0895-.86.1611.287-.5729.448-1.0384.484-1.3965.071-.3939.089-.6982.053-.9131-.035-.2506-.107-.4476-.214-.5908-.394-.3223-1.093-.0537-2.095.8057-.967.8235-2.095 2.3633-3.384 4.6191-.537.931-.967 1.9336-1.289 3.0078-.322 1.0384-.555 2.0231-.698 2.9541-.108.931-.126 1.7546-.054 2.4707.072.6804.215 1.128.43 1.3428.394.3939.841.5908 1.342.5908.502-.0358 1.003-.179 1.504-.4297.537-.2864 1.057-.6445 1.558-1.0742.537-.4297 1.003-.8773 1.396-1.3428.43-.4655.77-.8951 1.021-1.289.286-.3939.448-.6804.483-.8594zm23.955-23.3105c-.107.3938-.322.7877-.644 1.1816-.287.3581-.627.6624-1.021.9131-.358.2148-.734.3581-1.128.4297-.393.0716-.716 0-.966-.2149-.752-.5729-1.146-1.1816-1.182-1.8261-.036-.6804.125-1.307.483-1.8799.359-.6088.806-1.1101 1.343-1.5039.537-.4297 1.003-.6804 1.397-.752s.716.0179.966.2686c.287.2148.502.5192.645.9131.143.358.215.7698.215 1.2353.036.4655 0 .8773-.108 1.2354zm-7.412 11.4404c.179-.2149.52-.3939 1.021-.5371.501-.1433 1.02-.2507 1.557-.3223.538-.1074 1.021-.1611 1.451-.1611.465-.0358.734-.0358.805 0 .036.0358-.053.4118-.268 1.1279-.215.7162-.484 1.5576-.806 2.5244s-.662 1.9694-1.02 3.0078c-.358 1.0026-.627 1.8262-.806 2.4707-.179.6446-.394 1.3786-.645 2.2022-.25.7877-.483 1.5755-.698 2.3633-.179.7519-.304 1.4681-.376 2.1484-.071.6803-.018 1.1996.161 1.5576.179.4297.376.7341.591.9131.215.1432.448.2149.698.2149.717 0 1.612-.3939 2.686-1.1817 1.11-.7877 2.22-1.7187 3.33-2.793 1.146-1.11 2.202-2.22 3.169-3.33.967-1.1459 1.683-2.059 2.148-2.7393.287-.3581.573-.5908.86-.6982.322-.1075.573-.0896.752.0537.215.1432.322.376.322.6982.036.3223-.072.6983-.322 1.1279-.573 1.0027-1.415 2.2022-2.525 3.5987-1.11 1.3607-2.291 2.6855-3.545 3.9746-1.253 1.2532-2.488 2.3275-3.706 3.2226-1.181.8952-2.148 1.3607-2.9 1.3965-.609.0358-1.218-.0716-1.826-.3222-.573-.2149-1.11-.5192-1.612-.9131-.465-.4297-.859-.9131-1.181-1.4502-.322-.5729-.502-1.1638-.537-1.7725-.108-.8952-.108-2.1126 0-3.6523.107-1.5755.304-3.169.59-4.7803.287-1.6471.645-3.2047 1.075-4.6728.465-1.4681.984-2.5603 1.557-3.2764zm27.769 9.9365c-.179 1.11-.358 2.1664-.537 3.169-.143 1.0026-.233 1.8082-.269 2.4169-.036.8952.126 1.5398.484 1.9336.358.3939.752.5909 1.181.5909.502 0 1.11-.2507 1.826-.752.752-.5013 1.54-1.1279 2.364-1.8799.823-.7519 1.647-1.5755 2.47-2.4707.824-.8952 1.576-1.7366 2.256-2.5244.716-.8236 1.307-1.5397 1.773-2.1484.501-.6088.841-1.0026 1.02-1.1817.215-.2148.43-.3401.645-.3759.25-.0359.447 0 .591.1074.143.1074.214.3043.214.5908s-.143.6445-.429 1.0742c-.43.6804-.985 1.486-1.665 2.417-.681.8952-1.433 1.8262-2.256 2.793-.824.9668-1.701 1.9157-2.632 2.8467-.895.9309-1.808 1.7545-2.739 2.4707-.895.7161-1.773 1.289-2.632 1.7187-.824.4655-1.576.6983-2.256.6983-.501 0-.985-.1433-1.45-.4297-.43-.2865-.824-.6625-1.182-1.128s-.644-.9847-.859-1.5576c-.179-.5729-.251-1.1458-.215-1.7187.036-.2507.09-.6804.161-1.2891-1.504 1.6829-3.026 3.0257-4.565 4.0283-1.504.9668-2.954 1.4502-4.351 1.4502-.501 0-1.038-.1253-1.611-.376-.573-.2506-1.092-.6624-1.558-1.2353-.43-.5729-.788-1.3249-1.074-2.2559s-.394-2.0589-.322-3.3838c.107-2.0768.519-4.0462 1.235-5.9082.716-1.8619 1.611-3.4733 2.686-4.8339 1.11-1.3965 2.345-2.4887 3.706-3.2764 1.396-.8236 2.793-1.2354 4.189-1.2354.609 0 1.164.1612 1.665.4834.501.2865.931.6804 1.289 1.1817.358.4655.645.9847.86 1.5576.25.5729.429 1.11.537 1.6113.25-1.0384.483-2.0589.698-3.0615s.43-1.9515.644-2.8467c.359-1.3249.735-2.7571 1.128-4.2969.358-1.3248.77-2.8466 1.236-4.5654.465-1.7187.984-3.527 1.557-5.4248.358-.2864.699-.5013 1.021-.6445.322-.1433.626-.2507.913-.3223.322-.1074.627-.1611.913-.1611.358 0 .68.0537.967.1611.286.0716.519.3044.698.6983.215.358.358.913.43 1.665.071.7519.071 1.7725 0 3.0615-.072 1.5755-.358 3.2943-.86 5.1563-.465 1.8619-1.092 3.7955-1.879 5.8007-.788 1.9694-1.701 3.9568-2.74 5.962-1.002 1.9694-2.094 3.8492-3.276 5.6396zm-3.169.6983c.143-.6804.268-1.3607.376-2.0411.143-.6803.304-1.3785.483-2.0947-.071.0358-.143.0716-.215.1074-.035.0358-.089.0716-.161.1075-.394.179-.662.179-.805 0-.144-.2149-.215-.5372-.215-.9668 0-.2149-.018-.5909-.054-1.128-.036-.5729-.143-1.1458-.322-1.7187-.143-.6087-.376-1.128-.698-1.5576-.323-.4655-.77-.6983-1.343-.6983-.824 0-1.665.4297-2.525 1.2891-.859.8235-1.665 1.8441-2.417 3.0615-.752 1.1816-1.378 2.4528-1.879 3.8135-.502 1.3607-.788 2.5781-.86 3.6523-.071 1.7188.143 2.9541.645 3.7061.501.7519 1.181 1.1279 2.041 1.1279.644 0 1.342-.2506 2.094-.7519.788-.5013 1.54-1.1101 2.256-1.8262.752-.7162 1.433-1.4502 2.041-2.2022.645-.7519 1.164-1.3785 1.558-1.8798zm37.007-1.6114c-1.074 1.5755-2.292 3.1153-3.653 4.6192-1.36 1.4681-2.81 2.7929-4.35 3.9746-1.504 1.1458-3.062 2.0768-4.673 2.7929-1.576.7162-3.115 1.0743-4.619 1.0743-.788 0-1.647-.197-2.578-.5909-.895-.358-1.719-.9309-2.471-1.7187s-1.361-1.8083-1.826-3.0615c-.43-1.2533-.555-2.7751-.376-4.5655.143-1.4681.591-3.0078 1.343-4.6191.787-1.6471 1.736-3.151 2.846-4.5117 1.146-1.3607 2.417-2.4886 3.814-3.3838 1.432-.8952 2.864-1.3428 4.297-1.3428 1.36 0 2.345.3402 2.954 1.0205.609.6804.877 1.5218.805 2.5244-.107 1.1101-.429 2.1306-.966 3.0616-.502.931-1.11 1.7724-1.827 2.5244-.716.7519-1.486 1.4323-2.309 2.041-.788.6087-1.54 1.1637-2.256 1.665-.788.5371-1.54 1.0563-2.256 1.5576-.716.4655-1.343.8952-1.88 1.2891.036.8952.197 1.6471.484 2.2559.286.6087.644 1.11 1.074 1.5039.43.358.913.6266 1.45.8056.573.1433 1.146.2149 1.719.2149 1.217 0 2.488-.376 3.813-1.1279 1.325-.7878 2.614-1.7188 3.868-2.793 1.289-1.11 2.47-2.2559 3.544-3.4375 1.11-1.1817 2.024-2.2022 2.74-3.0615.25-.2865.501-.4476.752-.4834.286-.0717.501-.0358.644.1074.179.1074.269.3223.269.6445 0 .2865-.126.6266-.376 1.0205zm-13.75-8.2715c-.43 0-.949.2149-1.558.6446-.573.4297-1.146 1.0563-1.719 1.8799-.573.7877-1.11 1.7724-1.611 2.9541-.501 1.1458-.877 2.4707-1.128 3.9746.43-.3223.895-.6446 1.397-.9668.501-.3581 1.002-.7341 1.504-1.128 1.539-1.1816 2.613-2.22 3.222-3.1152s.949-1.665 1.021-2.3096c.071-.6803 0-1.1637-.215-1.4502-.215-.3222-.519-.4834-.913-.4834zm21.699-12.1923c-.107.3938-.322.7877-.645 1.1816-.286.3581-.626.6624-1.02.9131-.358.2148-.734.3581-1.128.4297s-.716 0-.967-.2149c-.752-.5729-1.146-1.1816-1.181-1.8261-.036-.6804.125-1.307.483-1.8799.358-.6088.806-1.1101 1.343-1.5039.537-.4297 1.002-.6804 1.396-.752s.716.0179.967.2686c.286.2148.501.5192.645.9131.143.358.214.7698.214 1.2353.036.4655 0 .8773-.107 1.2354zm-7.412 11.4404c.179-.2149.519-.3939 1.02-.5371.502-.1433 1.021-.2507 1.558-.3223.537-.1074 1.021-.1611 1.45-.1611.466-.0358.734-.0358.806 0 .036.0358-.054.4118-.269 1.1279-.215.7162-.483 1.5576-.805 2.5244-.323.9668-.663 1.9694-1.021 3.0078-.358 1.0026-.626 1.8262-.806 2.4707-.179.6446-.393 1.3786-.644 2.2022-.251.7877-.483 1.5755-.698 2.3633-.179.7519-.305 1.4681-.376 2.1484-.072.6803-.018 1.1996.161 1.5576.179.4297.376.7341.591.9131.215.1432.447.2149.698.2149.716 0 1.611-.3939 2.685-1.1817 1.11-.7877 2.221-1.7187 3.331-2.793 1.145-1.11 2.202-2.22 3.168-3.33.967-1.1459 1.683-2.059 2.149-2.7393.286-.3581.573-.5908.859-.6982.323-.1075.573-.0896.752.0537.215.1432.323.376.323.6982.035.3223-.072.6983-.323 1.1279-.573 1.0027-1.414 2.2022-2.524 3.5987-1.11 1.3607-2.292 2.6855-3.545 3.9746-1.253 1.2532-2.489 2.3275-3.706 3.2226-1.182.8952-2.149 1.3607-2.901 1.3965-.608.0358-1.217-.0716-1.826-.3222-.573-.2149-1.11-.5192-1.611-.9131-.466-.4297-.859-.9131-1.182-1.4502-.322-.5729-.501-1.1638-.537-1.7725-.107-.8952-.107-2.1126 0-3.6523.108-1.5755.305-3.169.591-4.7803.287-1.6471.645-3.2047 1.074-4.6728.466-1.4681.985-2.5603 1.558-3.2764zm38.242 9.5068c-.501.7162-1.146 1.6114-1.934 2.6856-.787 1.0384-1.611 2.0947-2.47 3.1689-.824 1.0384-1.647 2.0052-2.471 2.9004-.788.8594-1.45 1.4681-1.987 1.8262-.358.2148-.77.3939-1.236.5371-.465.1432-.948.2327-1.45.2685-.465.0358-.913 0-1.343-.1074-.429-.0716-.805-.2148-1.127-.4297-.323-.2506-.591-.6087-.806-1.0742-.179-.3939-.358-.9131-.537-1.5576-.143-.6445-.197-1.4502-.161-2.417-.86 1.4323-1.809 2.5423-2.847 3.3301-1.038.7519-2.023 1.3069-2.954 1.665-1.074.3939-2.149.6266-3.223.6983-.501 0-1.038-.1791-1.611-.5371-.573-.3223-1.056-.8415-1.45-1.5577-.394-.7519-.645-1.7008-.752-2.8466-.108-1.1817.036-2.5782.429-4.1895.502-2.1842 1.289-4.1715 2.364-5.9619 1.11-1.7904 2.309-3.3122 3.598-4.5654 1.289-1.2891 2.561-2.2559 3.814-2.9004 1.253-.6446 2.291-.931 3.115-.8594.967.179 1.755.4655 2.363.8594.502.358.824.8952.967 1.6113.179.6803-.107 1.5934-.859 2.7393.501-.1075.913-.1791 1.235-.2149.358-.0358.627-.0537.806-.0537.215 0 .358.0179.429.0537.036.0716.054.2328.054.4834 0 .2149-.054.6266-.161 1.2354-.107.6087-.269 1.4323-.483 2.4707-.215 1.0384-.502 2.3812-.86 4.0283-.071.3223-.143.6266-.215.9131-.035.2506-.089.5192-.161.8056-.036.2507-.089.555-.161.9131s-.161.8057-.268 1.3428c-.036.3223-.054.6803-.054 1.0742.036.3581.107.6983.215 1.0205.107.3223.268.5908.483.8057.251.179.591.2685 1.021.2685.358 0 .823-.2148 1.396-.6445.573-.4655 1.182-1.0384 1.826-1.7187.645-.7162 1.307-1.486 1.988-2.3096.716-.8594 1.378-1.683 1.987-2.4707.609-.7878 1.146-1.486 1.611-2.0947.501-.6088.86-1.0564 1.074-1.3428.287-.3223.573-.5013.86-.5371.286-.0716.501 0 .644.2148.144.2149.161.5371.054.9668-.072.4297-.322.931-.752 1.5039zm-15.737 2.3633c.179-.7161.394-1.5576.644-2.5244.251-.9668.466-1.8978.645-2.793s.304-1.6292.376-2.2021c.107-.6088.089-.8952-.054-.8594-.179.0358-.376.0895-.591.1611-.179.0716-.412.1254-.698.1612s-.573.0895-.859.1611c.286-.5729.447-1.0384.483-1.3965.072-.3939.09-.6982.054-.9131-.036-.2506-.108-.4476-.215-.5908-.394-.3223-1.092-.0537-2.095.8057-.967.8235-2.095 2.3633-3.384 4.6191-.537.931-.966 1.9336-1.289 3.0078-.322 1.0384-.555 2.0231-.698 2.9541-.107.931-.125 1.7546-.054 2.4707.072.6804.215 1.128.43 1.3428.394.3939.842.5908 1.343.5908.501-.0358 1.002-.179 1.504-.4297.537-.2864 1.056-.6445 1.557-1.0742.537-.4297 1.003-.8773 1.397-1.3428.43-.4655.77-.8951 1.02-1.289.287-.3939.448-.6804.484-.8594z" fill="#d11067"/></g><g clip-path="url(#b)"><ellipse cx="29.075" cy="31.1776" fill="#fff" rx="29.075" ry="29.1776"/><g clip-rule="evenodd" fill-rule="evenodd"><path d="m15.0064 5.59405c1.4533-.80391 2.974-1.47895 4.5448-2.01739-1.8484 9.24794-2.7624 18.65884-2.7281 28.09024 0 3.5241.1402 7.0609.4143 10.5913-.5864-3.0644-1.0645-6.1415-1.4533-9.2251-1.1327-8.8649-1.4102-17.8185-.8286-26.73679zm-8.1206 44.22935c-2.94584-3.4786-5.03254-7.6031-6.091182-12.0395-1.058646-4.4365-1.059502-9.0602-.002497-13.4971.691289 4.6091 1.588819 9.1848 2.689889 13.7132.97524 3.9837 2.09709 7.9355 3.40379 11.8234z" fill="#90386d"/><path d="m16.5681 57.287c-1.026-.4942-2.0221-1.0485-2.9831-1.6599-2.4369-6.0563-4.42261-12.2852-5.94068-18.6353-1.67193-6.8477-2.86257-13.8043-3.56314-20.8187 1.70941-2.8715 3.90019-5.4264 6.47612-7.55249-.38 8.31279-.0452 16.64289 1.0007 24.89819.9805 8.053 2.6568 16.0055 5.0101 23.7682z" fill="#da3c7f"/><path d="m56.9801 38.6069c-1.7037 6.3047-5.4783 11.8507-10.7149 15.7433.9051-1.8641 1.8846-3.6921 2.9385-5.4839 1.7981-3.0691 3.8902-5.9555 6.2466-8.6186.4845-.581.9944-1.1109 1.5298-1.6408z" fill="#90386d"/><path d="m49.3503 10.3696c2.7401 2.6964 4.9163 5.9127 6.4014 9.4609 1.4852 3.5482 2.2495 7.3572 2.2483 11.2046v1.047c-2.0787 1.5837-3.9998 3.3646-5.7367 5.318-2.5361 2.8699-4.7862 5.981-6.7184 9.289-1.2748 2.1195-2.4413 4.3539-3.5312 6.6842-.6969 1.4683-1.3556 2.9728-1.976 4.5136-1.7242.7116-3.513 1.2547-5.3415 1.6215.5887-8.2479 1.9633-16.4206 4.1049-24.4066 2.0913-7.9908 5.2427-15.6648 9.37-22.8169.3888-.6576.784-1.296 1.1792-1.9153z" fill="#da3c7f"/><path d="m38.4824 3.59619c2.7139.94315 5.2725 2.28578 7.5916 3.98371-.0829.14045-.1721.27452-.2614.40859-.4461.69587-.8796 1.40451-1.2748 2.11951-4.3391 7.4772-7.6516 15.5064-9.848 23.8704-1.819 6.7459-3.0979 13.6264-3.8245 20.5761-.39-7.9537-.0808-15.9263.9242-23.8257 1.1155-9.2841 3.3632-18.3963 6.6929-27.13261z" fill="#90386d"/><path d="m26.9707 60c-.8636-9.935-.6648-19.934.5928-29.8267 1.1533-9.4619 3.4279-18.7525 6.7757-27.67534-1.7656-.33144-3.558-.49815-5.3543-.49796-1.6188.00069-3.2348.13521-4.8316.4022-2.0743 9.6048-3.1044 19.4062-3.0723 29.233-.0145 9.4294 1.016 18.8312 3.0723 28.0328.9243.1532 1.8676.2682 2.8174.332z" fill="#da3c7f"/></g></g></svg>